<?xml version="1.0" encoding="UTF-8" standalone="no"?>
<!-- Generator: Adobe Illustrator 22.1.0, SVG Export Plug-In . SVG Version: 6.00 Build 0)  -->

<svg
   version="1.1"
   id="Calque_1"
   x="0px"
   y="0px"
   viewBox="0 0 182.4 53"
   style="enable-background:new 0 0 182.4 53;"
   xml:space="preserve"
   sodipodi:docname="epfl-oneblock.svg"
   inkscape:version="1.1.2 (b8e25be8, 2022-02-05)"
   xmlns:inkscape="http://www.inkscape.org/namespaces/inkscape"
   xmlns:sodipodi="http://sodipodi.sourceforge.net/DTD/sodipodi-0.dtd"
   xmlns="http://www.w3.org/2000/svg"
   xmlns:svg="http://www.w3.org/2000/svg"><defs
   id="defs50" /><sodipodi:namedview
   id="namedview48"
   pagecolor="#ffffff"
   bordercolor="#000000"
   borderopacity="0.25"
   inkscape:showpageshadow="2"
   inkscape:pageopacity="0.0"
   inkscape:pagecheckerboard="0"
   inkscape:deskcolor="#d1d1d1"
   showgrid="false"
   inkscape:zoom="11.313709"
   inkscape:cx="83.129237"
   inkscape:cy="23.555494"
   inkscape:window-width="1440"
   inkscape:window-height="777"
   inkscape:window-x="3840"
   inkscape:window-y="822"
   inkscape:window-maximized="0"
   inkscape:current-layer="g45"
   inkscape:pageshadow="2"
   showguides="true"
   inkscape:lockguides="true"
   inkscape:guide-bbox="true"
   inkscape:snap-others="true"
   inkscape:object-nodes="false"
   inkscape:snap-nodes="false"
   inkscape:snap-global="true"
   inkscape:snap-bbox="true" />
<style
   type="text/css"
   id="style27">
	.st0{fill:#FF0000;}
</style>
<g
   id="g45"
   inkscape:label="g45"
   style="display:inline">
	<polygon
   class="st0"
   points="11.4,9.8 38.3,9.8 38.3,0 0,0 0,21.6 11.4,21.6 "
   id="polygon29" />
	<polygon
   class="st0"
   points="38.3,43.2 11.4,43.2 11.4,31.4 0,31.4 0,53 38.3,53 "
   id="polygon31" />
	<rect
   x="11.4"
   y="21.6"
   class="st0"
   width="24.6"
   height="9.8000002"
   id="rect33" />

	<polygon
   class="st0"
   points="144,0 144,53 182.4,53 182.4,43.2 155.5,43.2 155.5,0 "
   id="polygon37" />
	<polygon
   class="st0"
   points="108.9,9.8 135.8,9.8 135.8,0 97.4,0 97.4,21.6 108.9,21.6 "
   id="polygon39" />

	<rect
   x="108.9"
   y="21.6"
   class="st0"
   width="24.6"
   height="9.8000002"
   id="rect43" />
<rect
   x="97.400002"
   y="31.4"
   class="st0"
   width="11.4"
   height="21.6"
   id="rect1090" /><rect
   style="fill:#ff0000;fill-opacity:1;fill-rule:evenodd;stroke-width:1.30914"
   id="rect354"
   width="11.400002"
   height="53"
   x="48.100765"
   y="0.0034469336" />
<polygon
  class="st0"
  id="polygon43"
  points="59.4 0.0, 71.8 0.0, 80.4 1.5, 86.0 4.9, 89.1 10.1, 90.1 15.9, 89.1 21.5, 86.0 26.6, 80.2 30.1, 71.5 31.4, 59.4 31.4, 59.4 21.6, 69.6 21.5, 73.7 21.1, 76.3 20.1, 78.0 18.6, 78.9 15.7, 77.9 12.7, 75.6 10.9, 71.3 9.9, 59.6 9.8, 59.4 8.3, 59.4 0.0"/>
  </g>
</svg>
