<?xml version="1.0" encoding="UTF-8" standalone="no"?>
<svg
   aria-hidden="true"
   focusable="false"
   data-prefix="fas"
   data-icon="wifi"
   class="svg-inline--fa fa-wifi fa-w-20"
   role="img"
   viewBox="0 0 640 512"
   version="1.1"
   id="svg1874"
   sodipodi:docname="wifi.svg"
   inkscape:version="1.1.2 (b8e25be8, 2022-02-05)"
   xmlns:inkscape="http://www.inkscape.org/namespaces/inkscape"
   xmlns:sodipodi="http://sodipodi.sourceforge.net/DTD/sodipodi-0.dtd"
   xmlns="http://www.w3.org/2000/svg"
   xmlns:svg="http://www.w3.org/2000/svg">
  <defs
     id="defs1878" />
  <sodipodi:namedview
     id="namedview1876"
     pagecolor="#ffffff"
     bordercolor="#666666"
     borderopacity="1.0"
     inkscape:pageshadow="2"
     inkscape:pageopacity="0.0"
     inkscape:pagecheckerboard="0"
     showgrid="false"
     inkscape:zoom="1.2207031"
     inkscape:cx="319.8976"
     inkscape:cy="255.5904"
     inkscape:window-width="3840"
     inkscape:window-height="1466"
     inkscape:window-x="0"
     inkscape:window-y="25"
     inkscape:window-maximized="1"
     inkscape:current-layer="svg1874" />
  <path
     fill="currentColor"
     d="M 634.91,154.88 C 457.74,-8.99 182.19,-8.93 5.09,154.88 c -6.66,6.16 -6.79,16.59 -0.35,22.98 l 34.24,33.97 c 6.14,6.1 16.02,6.23 22.4,0.38 C 207.3,78.53 226.24401,29.345367 372.1916,163.058 378.57401,168.90537 594.89,217.92 601.03,211.83 l 34.24,-33.97 c 6.43,-6.39 6.3,-16.82 -0.36,-22.98 z M 320,352 c -35.35,0 -64,28.65 -64,64 0,35.35 28.65,64 64,64 35.35,0 64,-28.65 64,-64 0,-35.35 -28.65,-64 -64,-64 z m 202.67,-83.59 c -115.26,-101.93 -290.21,-101.82 -405.34,0 -6.9,6.1 -7.12,16.69 -0.57,23.15 l 34.44,33.99 c 6,5.92 15.66,6.32 22.05,0.8 83.95,-72.57 209.74,-72.41 293.49,0 6.39,5.52 16.05,5.13 22.05,-0.8 l 34.44,-33.99 c 6.56,-6.46 6.33,-17.06 -0.56,-23.15 z"
     id="path1872"
     sodipodi:nodetypes="cccccscccsssssccccccccc" />
</svg>
